<svg height="256pt" preserveAspectRatio="xMidYMid meet" viewBox="0 0 256 256" width="256pt" xmlns="http://www.w3.org/2000/svg"><path d="m753 1963c-12-32 3-48 52-56 92-15 85 43 85-664 0-402-4-631-10-643-11-21-67-40-118-40-36 0-52-22-35-48 8-14 51-16 329-17 175-1 380-5 454-9 108-7 139-5 153 6 25 19 63 336 42 357-23 23-41 6-86-80-55-103-121-173-180-190-24-7-92-13-151-14-93 0-110 3-135 21-15 11-31 32-34 45-4 13-7 151-8 305-1 241 1 283 14 294 18 15 224 9 267-9 34-13 71-69 94-141 9-30 21-61 27-67 10-14 47-18 47-5 1 4 2 115 3 247l2 240h-25c-20 0-26-8-40-50-23-75-36-92-86-111-36-14-77-18-173-18l-126-1v267c0 258 1 268 21 288 27 28 110 36 200 21 141-25 206-72 260-189 38-82 61-92 77-32 13 52 5 276-11 292-18 18-902 19-909 1z" transform="matrix(.1 0 0 -.1 0 256)"/></svg>